<?xml version="1.0" encoding="UTF-8"?>
<svg xmlns="http://www.w3.org/2000/svg" viewBox="0 0 1400 900" role="img" aria-labelledby="title desc">
  <title id="title">Ochiba Shigure koi identification diagram</title>
  <desc id="desc">Stylized koi diagram showing autumn-leaf pattern over gray ground.</desc>
  <defs>
    <radialGradient id="water" cx="50%" cy="48%" r="70%">
      <stop offset="0" stop-color="#e8efe9"/>
      <stop offset="0.55" stop-color="#b9c7bd"/>
      <stop offset="1" stop-color="#21332d"/>
    </radialGradient>
    <filter id="soft" x="-20%" y="-20%" width="140%" height="140%">
      <feDropShadow dx="0" dy="20" stdDeviation="22" flood-color="#10201b" flood-opacity="0.25"/>
    </filter>
  </defs>
  <rect width="1400" height="900" fill="url(#water)"/>
  <path d="M196 690 C390 556 1040 554 1214 688" fill="none" stroke="#d8c38f" stroke-width="10" opacity=".55"/>
  <g filter="url(#soft)" transform="translate(700 468) rotate(-9)">
    <path d="M-448 8 C-325 -188 -86 -250 138 -188 C323 -136 452 -38 510 0 C449 42 316 137 138 190 C-80 255 -326 190 -448 8Z" fill="#7f8d8f" stroke="#25342f" stroke-width="7"/>
    <path d="M509 0 C604 -78 677 -109 760 -126 C716 -65 707 -23 707 0 C707 25 720 69 760 127 C676 110 602 80 509 0Z" fill="#7f8d8f" stroke="#25342f" stroke-width="7"/>
    <path d="M-452 8 C-518 -53 -578 -77 -658 -78 C-604 -30 -604 45 -658 88 C-571 85 -512 62 -452 8Z" fill="#7f8d8f" stroke="#25342f" stroke-width="7"/>
    <ellipse cx="-346" cy="0" rx="30" ry="25" fill="#111b1a"/>
    <path d="M-260 -132 C-148 -205 -8 -203 104 -164 C42 -112 -88 -96 -260 -132Z" fill="#c89b5d" opacity=".72"/>
    <path d="M-244 129 C-112 203 17 191 120 157 C52 108 -83 95 -244 129Z" fill="#c89b5d" opacity=".72"/>
    <path d="M-184 -88 C-58 -154 64 -154 174 -106 C126 -56 -52 -40 -184 -88Z" fill="#9b6735" opacity=".92"/>
    <path d="M-32 -24 C120 -84 254 -66 336 -10 C230 42 100 44 -32 -24Z" fill="#9b6735" opacity=".92"/>
    <path d="M68 86 C222 34 345 58 438 114 C316 164 184 150 68 86Z" fill="#9b6735" opacity=".9"/>
    <g opacity=".56" stroke="#4e5c5e" stroke-width="5" fill="none">
      <path d="M-222 -18 C-110 -62 33 -59 145 -14"/>
      <path d="M-185 42 C-54 5 94 7 232 45"/>
      <path d="M-50 -92 C50 -128 186 -121 296 -72"/>
      <path d="M164 16 C256 -15 354 -5 444 35"/>
      <path d="M-316 46 C-208 94 -71 104 55 82"/>
    </g>
    <path d="M-330 -20 C-365 -42 -398 -40 -425 -12" fill="none" stroke="#25342f" stroke-width="4"/>
    <path d="M-330 22 C-365 45 -400 42 -426 14" fill="none" stroke="#25342f" stroke-width="4"/>
  </g>
  <g transform="translate(92 72)">
    <rect width="570" height="154" rx="20" fill="#f6f1e7" opacity=".94"/>
    <text x="32" y="58" font-family="Georgia, serif" font-size="42" font-weight="700" fill="#23332d">Ochiba Shigure</text>
    <text x="32" y="104" font-family="Arial, sans-serif" font-size="24" fill="#31443d">autumn-leaf pattern over gray ground</text>
  </g>
</svg>