<svg xmlns="http://www.w3.org/2000/svg" viewBox="0 0 64 64" role="img" aria-labelledby="title desc">
  <title id="title">My Koi Garden logo</title>
  <desc id="desc">A premium Kohaku-inspired koi mark with red pattern on a white body.</desc>
  <circle cx="32" cy="32" r="30" fill="#fffdf8"/>
  <circle cx="32" cy="32" r="28" fill="none" stroke="#d9902f" stroke-width="2.6"/>
  <path d="M14 35c3-11 13-19 25-18 7 1 13 5 16 12-5 9-14 15-25 14-8-1-13-4-16-8Z" fill="#fffdf8" stroke="#17211f" stroke-width="2.4" stroke-linejoin="round"/>
  <path d="M14 35c-5-4-8-4-11-1 4 2 7 6 9 11 2-3 3-7 2-10Z" fill="#fffdf8" stroke="#17211f" stroke-width="2.2" stroke-linejoin="round"/>
  <path d="M24 21c4-3 11-4 17-2-1 5-5 8-10 9-4 1-7-1-7-7Z" fill="#c9221f"/>
  <path d="M24 31c4-3 12-4 18-1-1 5-5 9-11 10-5 1-8-2-7-9Z" fill="#c9221f"/>
  <path d="M43 23c5 2 9 5 12 7-3 5-7 9-12 11 3-6 3-12 0-18Z" fill="#c9221f"/>
  <circle cx="48" cy="29" r="2" fill="#17211f"/>
  <path d="M20 47c7 4 18 4 26 0" fill="none" stroke="#2e6f73" stroke-width="2.4" stroke-linecap="round"/>
  <path d="M25 52c5 2 10 2 15 0" fill="none" stroke="#6f8f4e" stroke-width="2" stroke-linecap="round"/>
</svg>
